<svg xmlns="http://www.w3.org/2000/svg" viewBox="0 0 256 156">
  <defs>
    <linearGradient id="a" x1="0" x2="1" y1="0" y2="0" gradientTransform="rotate(90 .5 .5)" gradientUnits="userSpaceOnUse">
      <stop offset="0%" stop-color="#006FCF"/>
      <stop offset="100%" stop-color="#006FCF"/>
    </linearGradient>
  </defs>
  <path fill="url(#a)" d="M256 127.3V151c0 2.8-2.3 5-5 5H5.1C2.3 156 0 153.8 0 151V5.1C0 2.3 2.3 0 5.1 0h245.8c2.8 0 5 2.3 5 5.1v23.7h-22l-7.2 8-7-8h-99.3v39l-13.7-39h-21.6l-25.7 59h19.6l4.3-10.7h24L108 87.3h12.7V78l5 9.3h27.7V26.5h25.4c2.8 0 8.7 1.2 11 6 1.5 2.9 2.3 7 2.3 13.7v5.2c0 5.5-.7 9.3-2.4 12.4-1.1 1.8-2.3 3.3-3.8 4.6-2 1.6-4.4 2.7-7 3.2-1.6.3-3.3.4-5 .4h-9.8v15.4H147l-5-8.1v8.1h-36l-1.8-4.3h-9.9l-1.7 4.3H66.3l11.5-26.7V57l-15.4 30.2H49.3L32.6 52.3v35h-22L4.6 78l-4.5 9.3H22l5-10.2 4.9 10.2h48v-8.2l4 8.2h21.2V28.8h20.8l9.4 26v-26h22.9l11 17V28.8h22.4v48.5h-21.5V42l-12.2 18-12.1-18v35.3h-30.7l-4-8.3v8.3H61L59.3 87h-9.9l-1.7 4.3h41.1v-8.4l4 8.4h20.5v-8l3 8h15V127z"/>
  <path fill="#FFF" d="M249 100.3v-.1c-.1.1-.2.1-.3.1h.3zm.1.1c0-.1-.1-.1 0 0zM240.4 104.6c.2-.1.4-.3.5-.6.2-.3.2-.6.2-1 0-.5-.1-.9-.5-1.1-.3-.3-.9-.4-1.7-.4h-2v6.2h1v-2.6h.9l1.4 2.6h1.1l-1.5-2.6c.3-.1.5-.2.6-.5zm-1.5-.4H238v-1.8h.8c.6 0 1 .1 1.2.2.2.1.3.4.3.7 0 .3-.1.5-.3.7-.1.1-.6.2-1.1.2z"/>
  <path fill="#FFF" d="M239.4 99.7c-1 0-1.9.3-2.6 1.1-.7.7-1.1 1.6-1.1 2.6 0 1 .4 1.9 1.1 2.6.7.7 1.6 1.1 2.6 1.1 1 0 1.9-.4 2.6-1.1.7-.7 1.1-1.6 1.1-2.6s-.4-1.9-1.1-2.6c-.7-.7-1.6-1.1-2.6-1.1zm2 5.7c-.5.5-1.2.8-2 .8-.8 0-1.5-.3-2-.8-.5-.5-.8-1.2-.8-2s.3-1.5.8-2c.5-.5 1.2-.8 2-.8.8 0 1.5.3 2 .8.5.5.8 1.2.8 2s-.3 1.5-.8 2zM45.5 122.4v-8.3l3.7 8.3h15.4v-17h-10V114l-3.7-8.6H35.6v17zm-10-4h-6V114h5.8v-4.3h-5.7v-3.7h6v-4.2H19.3v17h16.3v-4.3zm143 4h4.5v-17h-4.5v17zm32-17l-7.5 17h4.8l1.4-3.2h9.1l1.4 3.2h5l-7.4-17h-6.8zm.8 10l3-7 3 7h-6zm-76.7 7h4.5v-12.8h6v-4.3h-16.4v4.3h5.9v12.8zm-25.6 0h4.5v-17h-4.5v17zm93.4-6.7l-6.1-10.4h-4.9v17h4.5v-10.4l6 10.4h4.9v-17h-4.4v10.4zm17.9-5.2c0 2-1.3 3-3.7 3h-4v-6.3h4c2.3 0 3.7 1 3.7 3.3zm-13.2-5.2v17h4.5v-6.1h1.1c1 0 1.6.2 1.9.6.4.6.5 1.8.6 3.3 0 .8.1 1.8.3 2.1h5v-.6c-.5-.3-.5-1-.6-2.3-.1-1.8-.2-2.9-.7-3.7-.3-.5-.7-.9-1.6-1.2 1.7-.6 2.8-2 2.8-4 0-2-.8-3.3-2-4.1-1.3-.8-2.8-1-4.7-1h-6.6zM138.3 110c0 4.6-3.7 7.6-9.1 7.6-5.5 0-9.1-3-9.1-7.6v-17h5v16.6c0 2.1 1.7 3.3 4.1 3.3s4.1-1.2 4.1-3.3V93h5v16.9zm-33.1 12.4h4.5v-7.1h9.4v-4.2h-9.4v-3.7h10.3v-4.2h-14.8z"/>
  <path fill="#FFF" d="M114 93h-14.7l-6.4 7.1L87 93H66.5v17h20.2l6.3-6.9 6.3 6.9H113zm-9.2 12.8l-8.2-9 8.2-8.9v18zm-21.1 0h-12V114h10.8v-3.7h-10.8v-3.9h12.5l5.2 5.7-5.7 6.3zM61.7 118.5h-14v-3.8h12.5v-3.7h-12.5v-3.9h14.2l6.9 5.7zm110.8-8.1c0 2-1.3 3-3.7 3h-4v-6.3h4c2.3 0 3.7 1 3.7 3.3zm-13.2-5.2v17h4.5v-6.1h1.1c1 0 1.6.2 1.9.6.4.6.5 1.8.6 3.3 0 .8.1 1.8.3 2.1h5v-.6c-.5-.3-.5-1-.6-2.3-.1-1.8-.2-2.9-.7-3.7-.3-.5-.7-.9-1.6-1.2 1.7-.6 2.8-2 2.8-4 0-2-.8-3.3-2-4.1-1.3-.8-2.8-1-4.7-1h-6.6zm-52.5 0l-6.8 7.6h-.1v-7.6h-4.5v17h4.5v-7.8h.1l7 7.8h5.9l-8.1-8.8 7.7-8.2z"/>
</svg>