<svg xmlns="http://www.w3.org/2000/svg" viewBox="0 0 131.39 86.9">
  <defs>
    <style>
      .a{opacity:0;}.b{fill:#fff;}.c{fill:#ff5f00;}.d{fill:#eb001b;}.e{fill:#f79e1b;}
    </style>
  </defs>
  <title>mastercard</title>
  <g class="a">
    <rect class="b" width="131.39" height="86.9"/>
  </g>
  <rect class="c" x="48.37" y="15.14" width="34.66" height="56.61"/>
  <path class="d" d="M51.94,43.45a35.94,35.94,0,0,1,13.75-28.3,36,36,0,1,0,0,56.61A35.94,35.94,0,0,1,51.94,43.45Z"/>
  <path class="e" d="M120.5,65.76V64.6H121v-.24h-1.19v.24h.47v1.16Zm2.31,0v-1.4h-.36l-.42,1-.42-1h-.36v1.4h.26V64.7l.39.91h.27l.39-.91v1.06Zm-45.74-3.42a11.34,11.34,0,0,0,0-22.67,11.35,11.35,0,0,0,0,22.67Zm0-30.42c10.48,0,19,8.26,19,18.75s-8.47,18.74-19,18.74-18.95-8.27-18.95-18.74S66.6,31.92,77.07,31.92Zm-41.79,30.9H48.38c-.12-7.93,7.15-12.28,7.15-12.28-2.59,3.45-2.08,7.64-2.08,7.64h31.1s.15-2.44-1.5-7.64l6.79,12.28H104c-.42-8-7.3-12.65-7.3-12.65-2.11,3.46-.89,7-1.78,12.65H76.7a13.15,13.15,0,0,1-19.42-10,12.64,12.64,0,0,1,10.53-14.42A13.43,13.43,0,0,1,83.65,43.1S81.08,31.92,66,31.92a19,19,0,0,0,0,37.8v-6.9H35.29Z"/>
</svg>