<svg viewBox="0 0 1000 324" xmlns="http://www.w3.org/2000/svg" height="324" width="1000">
  <path d="M651.19 0.5H348.81C156.5 0.5 0.5 44.79 0.5 100.5v123c0 55.71 156 100 348.31 100h302.38c192.3 0 348.81-44.29 348.81-100v-123c0-55.71-156.51-100-348.81-100z" fill="#fff"/>
  <path d="M379.597 198.854l24.533-150.245h39.232l-24.514 150.245h-39.25zm182.298-146.498c-7.707-3.021-19.798-6.23-34.859-6.23-38.396 0-65.406 20.228-65.607 49.235-.192 21.566 19.257 33.579 34.059 40.718 15.192 7.31 20.309 11.993 20.186 18.558-.102 10.031-12.06 14.616-23.304 14.616-15.59 0-23.867-2.278-36.697-7.784l-4.972-2.369-5.406 33.16c9.05 4.097 25.812 7.674 43.209 7.854 40.812 0 67.376-19.973 67.668-50.93.146-16.99-10.26-29.886-32.87-40.555-13.735-6.936-22.057-11.555-21.967-18.586 0-6.233 7.044-12.85 22.427-12.85 12.82-.21 22.075 2.698 29.324 5.744l3.478 1.785 5.331-32.366m51.645-3.747h-30.343c-9.377 0-16.416 2.689-20.526 12.504L504.83 198.854h40.798s6.739-18.61 8.273-22.62c4.52 0 44.729.086 50.498.086 1.157 5.22 4.787 22.534 4.787 22.534h36.071l-31.717-149.245zm-44.008 96.893c3.264-8.72 15.79-42.332 15.79-42.332-.22.395 3.264-8.803 5.243-14.506l2.723 13.276s7.518 36.138 9.133 43.562h-32.889zm-320.703-96.893L209.713 132.1l-3.433-17.413c-5.953-20.183-24.531-41.997-45.268-52.922l29.274 136.82 41.078-.081 72.024-149.002h-41.059"></path>
  <path d="M196.643 48.634h-62.505L134 49.965c48.529 12.382 80.646 42.28 93.944 78.163l-13.542-68.568c-2.345-9.38-9.157-10.73-17.759-10.926" fill="#F7A600"></path>
</svg>